<mxfile host="app.diagrams.net" modified="2023-02-18T14:57:04.389Z" agent="5.0 (Macintosh)" etag="jD1m8hjZ7XIdqGWaKI4C" version="20.6.0" type="github">
  <diagram name="Page-1" id="74e2e168-ea6b-b213-b513-2b3c1d86103e">
    <mxGraphModel dx="1018" dy="684" grid="1" gridSize="10" guides="1" tooltips="1" connect="1" arrows="1" fold="1" page="1" pageScale="1" pageWidth="1100" pageHeight="850" background="none" math="0" shadow="0">
      <root>
        <mxCell id="0" />
        <mxCell id="1" parent="0" />
        <mxCell id="i12uHk8np1ZkABKUETxb-8" style="edgeStyle=orthogonalEdgeStyle;rounded=0;orthogonalLoop=1;jettySize=auto;html=1;exitX=0.5;exitY=1;exitDx=0;exitDy=0;entryX=0.5;entryY=0;entryDx=0;entryDy=0;fontSize=12;" edge="1" parent="1" source="i12uHk8np1ZkABKUETxb-2" target="i12uHk8np1ZkABKUETxb-6">
          <mxGeometry relative="1" as="geometry" />
        </mxCell>
        <mxCell id="i12uHk8np1ZkABKUETxb-2" value="" style="rounded=1;whiteSpace=wrap;html=1;fontSize=12;" vertex="1" parent="1">
          <mxGeometry x="60" y="40" width="220" height="120" as="geometry" />
        </mxCell>
        <mxCell id="i12uHk8np1ZkABKUETxb-3" value="Message created" style="text;html=1;strokeColor=none;fillColor=none;align=center;verticalAlign=middle;whiteSpace=wrap;rounded=0;fontSize=12;" vertex="1" parent="1">
          <mxGeometry x="70" y="50" width="200" height="100" as="geometry" />
        </mxCell>
        <mxCell id="i12uHk8np1ZkABKUETxb-11" style="edgeStyle=orthogonalEdgeStyle;rounded=0;orthogonalLoop=1;jettySize=auto;html=1;exitX=0.5;exitY=1;exitDx=0;exitDy=0;entryX=0.5;entryY=0;entryDx=0;entryDy=0;fontSize=12;" edge="1" parent="1" source="i12uHk8np1ZkABKUETxb-6" target="i12uHk8np1ZkABKUETxb-9">
          <mxGeometry relative="1" as="geometry" />
        </mxCell>
        <mxCell id="i12uHk8np1ZkABKUETxb-6" value="" style="rounded=1;whiteSpace=wrap;html=1;fontSize=12;" vertex="1" parent="1">
          <mxGeometry x="60" y="190" width="220" height="120" as="geometry" />
        </mxCell>
        <mxCell id="i12uHk8np1ZkABKUETxb-7" value="Free tx buffers, Encrypt message" style="text;html=1;strokeColor=none;fillColor=none;align=center;verticalAlign=middle;whiteSpace=wrap;rounded=0;fontSize=12;" vertex="1" parent="1">
          <mxGeometry x="70" y="200" width="200" height="100" as="geometry" />
        </mxCell>
        <mxCell id="i12uHk8np1ZkABKUETxb-14" style="edgeStyle=orthogonalEdgeStyle;rounded=0;orthogonalLoop=1;jettySize=auto;html=1;exitX=0.5;exitY=1;exitDx=0;exitDy=0;entryX=0.5;entryY=0;entryDx=0;entryDy=0;fontSize=12;" edge="1" parent="1" source="i12uHk8np1ZkABKUETxb-9" target="i12uHk8np1ZkABKUETxb-12">
          <mxGeometry relative="1" as="geometry" />
        </mxCell>
        <mxCell id="i12uHk8np1ZkABKUETxb-9" value="" style="rounded=1;whiteSpace=wrap;html=1;fontSize=12;" vertex="1" parent="1">
          <mxGeometry x="60" y="340" width="220" height="120" as="geometry" />
        </mxCell>
        <mxCell id="i12uHk8np1ZkABKUETxb-10" value="Put encrypted message and generated auth tag into tx_secret_message." style="text;html=1;strokeColor=none;fillColor=none;align=center;verticalAlign=middle;whiteSpace=wrap;rounded=0;fontSize=12;" vertex="1" parent="1">
          <mxGeometry x="70" y="350" width="200" height="100" as="geometry" />
        </mxCell>
        <mxCell id="i12uHk8np1ZkABKUETxb-17" style="edgeStyle=orthogonalEdgeStyle;rounded=0;orthogonalLoop=1;jettySize=auto;html=1;exitX=0.5;exitY=1;exitDx=0;exitDy=0;entryX=0.5;entryY=0;entryDx=0;entryDy=0;fontSize=12;" edge="1" parent="1" source="i12uHk8np1ZkABKUETxb-12" target="i12uHk8np1ZkABKUETxb-15">
          <mxGeometry relative="1" as="geometry" />
        </mxCell>
        <mxCell id="i12uHk8np1ZkABKUETxb-12" value="" style="rounded=1;whiteSpace=wrap;html=1;fontSize=12;" vertex="1" parent="1">
          <mxGeometry x="60" y="480" width="220" height="120" as="geometry" />
        </mxCell>
        <mxCell id="i12uHk8np1ZkABKUETxb-13" value="Fragment message." style="text;html=1;strokeColor=none;fillColor=none;align=center;verticalAlign=middle;whiteSpace=wrap;rounded=0;fontSize=12;" vertex="1" parent="1">
          <mxGeometry x="70" y="490" width="200" height="100" as="geometry" />
        </mxCell>
        <mxCell id="i12uHk8np1ZkABKUETxb-15" value="" style="rounded=1;whiteSpace=wrap;html=1;fontSize=12;" vertex="1" parent="1">
          <mxGeometry x="60" y="620" width="220" height="120" as="geometry" />
        </mxCell>
        <mxCell id="i12uHk8np1ZkABKUETxb-16" value="Send packets." style="text;html=1;strokeColor=none;fillColor=none;align=center;verticalAlign=middle;whiteSpace=wrap;rounded=0;fontSize=12;" vertex="1" parent="1">
          <mxGeometry x="70" y="630" width="200" height="100" as="geometry" />
        </mxCell>
      </root>
    </mxGraphModel>
  </diagram>
</mxfile>
